<svg width="439" height="15" viewBox="0 0 439 15" fill="none" xmlns="http://www.w3.org/2000/svg">
<mask id="mask0_1177_546" style="mask-type:alpha" maskUnits="userSpaceOnUse" x="0" y="0" width="439" height="15">
<rect x="0.723633" y="0.782227" width="438.167" height="13.6088" fill="#C4C4C4" fill-opacity="0.5"/>
</mask>
<g mask="url(#mask0_1177_546)">
<path d="M66.5374 -5.09554L67.6083 -5.27492L65.5244 -5.5321L66.5233 -5.72035C67.5251 -5.71863 68.8229 -5.43655 69.5291 -5.58643C69.6155 -5.73155 68.5247 -5.77813 68.2463 -5.89375C68.0001 -6.01226 67.7991 -6.12999 67.6457 -6.24555C68.1912 -6.2443 68.791 -6.21635 69.4094 -6.16334C70.2411 -6.07676 71.0569 -6.03466 71.7668 -6.04172C73.2184 -6.01833 74.6208 -6.04166 76.199 -6.03652L75.6739 -6.38577L77.7079 -6.30407C77.9235 -6.27746 78.1804 -6.32025 78.3922 -6.28733C80.1549 -6.00884 80.9008 -6.1606 81.747 -6.28643C81.9205 -6.31899 82.1295 -6.3433 82.3685 -6.35873C84.72 -6.29201 86.8404 -5.90165 88.9581 -5.70125C89.3567 -5.65008 89.7389 -5.5844 90.0779 -5.50887C90.8144 -5.36203 91.6337 -5.24215 92.4609 -5.16018C93.288 -5.07821 94.0965 -5.03679 94.8125 -5.03968C96.3958 -5.04293 98.1845 -4.9458 100.006 -4.75772C100.547 -4.69576 101.089 -4.65489 101.597 -4.63771C102.105 -4.62053 102.567 -4.6274 102.955 -4.65791L104.186 -4.45854C104.72 -4.53944 105.396 -4.58383 106.175 -4.589C106.954 -4.59418 107.818 -4.56005 108.716 -4.48867C109.673 -4.41123 110.644 -4.35903 111.637 -4.27716C113.687 -4.12065 115.683 -4.02493 117.562 -3.99298C120.359 -3.8983 123.093 -3.82508 125.915 -3.70704C127.681 -3.65006 129.401 -3.61872 131.066 -3.61318C133.06 -3.59089 135.217 -3.483 137.433 -3.2947C137.328 -3.11804 136.356 -3.17023 135.704 -3.17621C133.6 -3.20557 131.447 -3.28166 129.283 -3.33882C128.308 -3.36113 127.36 -3.36958 126.444 -3.36411C124.913 -3.37143 123.299 -3.41851 121.629 -3.50453C118.992 -3.59918 116.439 -3.64467 113.997 -3.64055C113.805 -3.63355 113.63 -3.62116 113.473 -3.60356C113.441 -3.58832 113.434 -3.5691 113.455 -3.54775C113.475 -3.5264 113.521 -3.50363 113.59 -3.48162C113.658 -3.45961 113.745 -3.4391 113.844 -3.42205C113.943 -3.405 114.049 -3.39198 114.153 -3.38424C115.123 -3.26452 116.165 -3.13593 117.08 -3.11784C117.115 -3.11649 117.153 -3.1134 117.19 -3.1088C117.227 -3.1042 117.263 -3.0982 117.295 -3.09123C119.343 -2.83848 121.027 -2.88125 122.623 -2.84013C125.271 -2.72899 127.825 -2.67708 130.244 -2.68518C130.609 -2.68463 131.004 -2.67018 131.414 -2.64236C133.948 -2.52957 136.317 -2.51696 138.411 -2.60508C139.273 -2.62741 140.074 -2.67753 141 -2.67837C141.57 -2.68182 142.067 -2.7138 142.46 -2.7724C142.852 -2.83101 143.133 -2.91502 143.285 -3.01938C143.676 -2.96444 144.073 -2.91547 144.471 -2.87306C144.709 -2.84881 144.937 -2.84237 145.109 -2.85506C145.281 -2.86775 145.385 -2.89862 145.399 -2.94142C145.47 -3.0613 144.927 -3.1215 144.457 -3.17284C144.74 -3.19855 145.06 -3.21367 145.409 -3.21785C147.371 -3.24524 149.475 -3.21291 151.677 -3.12157C153.386 -3.01223 154.75 -3.10123 156.548 -2.94704C156.764 -2.92044 156.941 -2.95949 157.14 -2.96886C157.657 -3.01824 158.301 -3.02934 159.017 -3.00119C159.733 -2.97304 160.498 -2.90649 161.247 -2.80731C162.18 -3.07826 164.194 -2.76872 165.682 -2.7409C166.14 -2.60311 165.614 -2.62734 165.591 -2.58948C165.569 -2.55162 165.591 -2.58949 165.412 -2.61166C163.927 -2.41652 161.892 -2.37397 159.593 -2.48999C159.168 -2.4895 158.763 -2.48062 158.382 -2.4634C157.804 -2.43904 157.153 -2.44147 156.457 -2.47059C155.697 -2.49198 154.999 -2.48182 154.396 -2.44061C154.049 -2.44128 153.755 -2.42064 153.543 -2.38058C153.33 -2.34052 153.205 -2.28233 153.179 -2.21144C153.411 -2.15679 153.668 -2.10679 153.94 -2.06341C155.36 -1.89215 156.776 -1.82126 157.91 -1.86469C159.883 -1.93952 162.23 -1.8665 164.328 -1.89204C165.746 -1.90239 167.255 -1.87291 168.827 -1.80416C168.827 -1.80416 168.786 -1.73475 168.782 -1.72844C168.968 -1.6984 169.163 -1.67429 169.357 -1.65749C169.357 -1.65749 169.357 -1.65749 169.375 -1.68904C169.289 -1.71934 169.173 -1.74784 169.039 -1.77124L168.572 -1.82889C168.889 -1.84389 169.186 -1.88856 169.516 -1.86127C170.214 -1.81057 170.88 -1.78916 171.475 -1.79833C172.071 -1.80749 172.583 -1.84704 172.981 -1.91459C173.686 -2.00118 174.563 -2.04055 175.556 -2.03017C176.317 -2.03963 177.05 -2.05994 177.752 -2.09102C177.752 -2.09102 177.797 -2.16673 178.13 -2.20697C177.815 -2.2566 177.486 -2.29712 177.16 -2.32669C175.738 -2.40055 174.313 -2.4681 172.916 -2.5186C172.401 -2.52405 171.917 -2.51559 171.474 -2.49338C170.245 -2.46739 168.864 -2.50428 167.412 -2.6019C167.412 -2.6019 167.124 -2.63737 166.98 -2.65511C167.388 -2.82154 168.793 -2.65492 169.361 -2.76763C169.707 -2.76558 170.316 -2.75141 170.295 -2.78108C170.248 -2.82067 170.242 -2.85746 170.278 -2.88879C170.315 -2.92012 170.393 -2.94523 170.506 -2.96231C170.619 -2.97939 170.766 -2.98803 170.934 -2.98759C171.103 -2.98715 171.29 -2.97765 171.481 -2.95977C173.08 -2.86308 174.587 -2.83619 175.908 -2.88075C176.409 -2.87989 176.97 -2.85123 177.467 -2.84406C177.772 -2.83542 178.049 -2.84023 178.286 -2.85821C179.487 -2.9906 181.103 -3.00027 182.892 -2.88576C183.756 -2.84459 184.564 -2.83908 185.273 -2.86952C185.778 -2.87497 185.992 -2.78085 186.351 -2.7365L187.877 -2.64303L185.917 -2.5259C186.336 -2.25749 186.669 -2.16898 187.353 -2.15226C188.352 -2.127 189.324 -2.1156 190.264 -2.1181C190.96 -2.12031 191.534 -2.17812 192.476 -2.07544C192.642 -2.0587 192.802 -2.05328 192.929 -2.06009C194.032 -2.15124 195.36 -2.17216 196.822 -2.12142C197.58 -2.2921 198.869 -2.12616 200.063 -1.99244C200.448 -2.12102 199.75 -2.18003 199.334 -2.25848C200.332 -2.25045 201.337 -2.25504 202.367 -2.23626C202.677 -2.2431 203.031 -2.23141 203.402 -2.20211C203.773 -2.17282 204.15 -2.12671 204.504 -2.06742C204.676 -2.0291 204.884 -2.00026 205.085 -1.98689C205.285 -1.97352 205.462 -1.97664 205.579 -1.9956C206.114 -2.05153 206.97 -2.00002 207.412 -2.09448C207.569 -2.11621 207.794 -2.11924 208.046 -2.10305C208.298 -2.08686 208.56 -2.0525 208.787 -2.00612C208.539 -1.99165 208.318 -1.96886 208.129 -1.93826C207.453 -1.83885 207.702 -1.67276 208.561 -1.43128C209.88 -1.44456 211.227 -1.44078 212.45 -1.4863C213.132 -1.52715 213.967 -1.51438 214.861 -1.44942C215.756 -1.38445 216.675 -1.26988 217.515 -1.11856C217.819 -1.06038 218.165 -1.02008 218.486 -1.00567C218.806 -0.991259 219.076 -1.00379 219.243 -1.04078C219.347 -1.08356 219.379 -1.13771 219.337 -1.19852L218.474 -1.30493C218.474 -1.30493 218.508 -1.36172 218.516 -1.37434L219.755 -1.38388C220.411 -1.38421 221.096 -1.36748 221.715 -1.37225C222.626 -1.40394 223.666 -1.38628 224.77 -1.32035C225.789 -1.25276 226.79 -1.20166 227.764 -1.16752C228.708 -1.13238 229.391 -1.24441 230.289 -1.2623C230.968 -1.27579 231.715 -1.26138 232.501 -1.21963C233.859 -1.14559 235.105 -1.14545 236.126 -1.21923C237.316 -0.821713 237.895 -0.75708 239 -0.864495L239.52 -0.89518L239.662 -0.809919L240.059 -0.828669C240.801 -0.845369 241.544 -0.86206 242.319 -0.868017C243.396 -0.831127 244.56 -0.731875 245.696 -0.579954C245.911 -0.553349 246.205 -0.462955 246.394 -0.392184C246.583 -0.321413 246.996 -0.107913 247.299 0.0310723C246.969 0.13253 246.603 0.229551 246.341 0.346187C246.314 0.366114 246.317 0.389874 246.348 0.41556C246.379 0.441245 246.438 0.468142 246.521 0.494084C246.603 0.520025 246.705 0.544282 246.821 0.56492C246.936 0.585558 247.061 0.601996 247.185 0.612908C247.426 0.63643 247.664 0.65211 247.89 0.659303C249 0.67171 250.063 0.662489 251.069 0.63173C251.436 0.588338 251.939 0.584214 252.497 0.620024C253.056 0.655835 253.638 0.729526 254.152 0.829411C255.468 0.769445 256.997 0.78716 258.634 0.881327C260.365 0.824057 262.456 0.939875 264.073 0.814391C264.035 0.877485 264.202 0.986116 264.435 1.0487C264.803 1.14377 265.22 1.23187 265.668 1.30928L269.088 1.46042C269.216 1.53814 269.376 1.61681 269.565 1.69542C269.695 1.75751 269.922 1.81827 270.196 1.86481C270.471 1.91136 270.773 1.94003 271.037 1.94476C271.718 1.96779 272.288 1.91629 273.099 2.04352C271.85 2.16378 270.165 2.1478 268.344 1.99843C266.633 1.88483 264.988 1.82805 263.469 1.83021C262.968 1.82935 262.308 1.83599 262.152 1.9047C261.805 2.09893 260.897 2.06823 259.839 2.0324C259.007 1.99318 258.248 1.99758 257.623 2.04524C256.998 2.0929 256.525 2.18246 256.243 2.30654C256.172 2.42642 256.343 2.52875 257.072 2.5985L260.107 2.87822C260.555 2.84226 260.979 2.79969 261.379 2.75069C262.052 2.6856 262.884 2.66774 263.809 2.69848C264.733 2.72923 265.727 2.80775 266.711 2.92795C267.214 2.99003 267.717 3.0521 268.082 3.02261C268.402 2.98873 268.697 2.94816 268.964 2.9012C269.018 2.86974 269.039 2.83352 269.028 2.79394C269.221 2.81235 269.415 2.83627 269.603 2.86489C271.101 3.19881 272.261 3.19303 273.316 3.10642C273.601 3.08067 273.818 3.03975 274.107 3.00769C274.396 2.97564 274.498 2.93403 274.761 2.94615C276.856 3.05566 277.459 2.68988 279.224 2.70458C279.31 2.69029 279.364 2.66892 279.379 2.64246C279.395 2.616 279.373 2.58529 279.314 2.55315C279.19 2.52413 279.045 2.49918 278.895 2.48058C278.744 2.46198 278.592 2.45035 278.452 2.44673C277.639 2.39979 276.922 2.41418 276.422 2.48745C276.068 2.51738 275.693 2.54124 275.3 2.55888L273.532 2.02919C275.245 2.07775 276.864 2.07743 278.354 2.02825C278.679 2.00063 279.229 2.04821 279.686 2.05726L283.051 2.10676C283.742 2.11087 284.332 2.02783 285.297 2.2214C285.297 2.2214 285.934 2.25261 286.104 2.22618C286.274 2.19975 287.027 2.03537 287.476 1.92829C287.998 1.95882 288.721 2.04121 289.045 2.01358C289.613 1.94574 290.105 1.85877 290.511 1.75423L292.543 1.90347C292.541 2.03604 292.467 2.16076 292.322 2.27573C292.163 2.3866 292.169 2.5197 292.338 2.66412C292.507 2.80855 292.834 2.96021 293.293 3.10672L295.3 3.88266C295.628 3.93462 295.977 3.96959 296.3 3.98283C296.623 3.99608 296.905 3.98695 297.107 3.95668C297.971 3.86683 298.938 3.79659 299.801 3.70674C300.915 3.8442 300.629 4.06622 301.439 4.26098L304.061 4.58467C304.462 4.88463 304.869 5.17197 303.652 5.2724C303.411 5.28996 303.574 5.4049 303.353 5.45213C304.299 5.67724 305.339 5.74462 306.297 5.88328C306.676 5.98299 306.992 6.08855 307.231 6.19483C307.493 6.35488 308.025 6.51836 308.712 6.64998C309.398 6.7816 310.184 6.87081 310.9 6.89832C312.101 6.98258 313.331 7.10915 314.535 7.27234C314.946 7.32908 315.368 7.37043 315.773 7.39359C316.179 7.41674 316.558 7.42117 316.884 7.40658C318.049 7.38089 319.034 7.29252 319.777 7.14725C320.511 7.02397 321.501 6.96455 322.657 6.97438C324.633 7.21826 325.031 7.58576 326.227 7.90944L324.161 7.94573C324.086 8.07192 324.223 8.23102 323.376 8.22811C322.53 8.2252 322.959 8.34593 323.234 8.46787C323.331 8.5292 323.519 8.59229 323.768 8.64646C324.017 8.70063 324.311 8.74254 324.6 8.76511L326.358 8.92118C326.982 8.98057 327.585 9.00593 328.102 8.99448C328.619 8.98302 329.03 8.9352 329.289 8.85625C329.587 8.78129 329.998 8.73057 330.496 8.70723C331.132 8.64608 331.655 8.55513 332.045 8.43782L334.527 8.60873C334.633 8.49085 334.974 8.40819 335.493 8.37474C336.012 8.34128 336.677 8.35907 337.375 8.42511L339.048 8.53002C340.908 8.64447 341.316 8.60679 341.861 8.27444L339.63 7.6808C339.955 7.52443 340.268 7.38698 340.581 7.24955C340.025 7.05397 339.283 6.86898 338.432 6.71338C337.636 6.54619 336.819 6.38425 335.982 6.2282C335.074 6.06874 334.115 5.93009 332.988 5.75034C332.791 5.69218 332.505 5.58917 332.14 5.48992C331.774 5.39347 331.393 5.29893 330.997 5.20666C331.072 5.08047 331.14 4.96691 330.995 4.82042C331.69 4.86716 332.407 4.94891 333.082 5.05829C333.758 5.16768 334.371 5.30126 334.865 5.447C334.948 5.47284 335.05 5.49712 335.164 5.51818C335.278 5.53925 335.401 5.55662 335.525 5.56911C336.745 5.65865 337.328 5.84572 337.924 6.07509C338.326 6.19234 338.843 6.29647 339.405 6.37302C340.483 6.50605 341.539 6.67694 342.569 6.82446C342.885 6.87361 343.213 6.91408 343.539 6.94418C344.617 7.03988 345.701 7.1737 346.737 7.33883C347.075 7.3808 347.4 7.43634 347.683 7.50081C347.967 7.56528 348.202 7.6368 348.368 7.70941C348.111 7.78896 347.973 7.88937 347.961 8.00458C347.916 8.0803 348.673 8.23464 349.03 8.34651C349.388 8.45838 348.687 8.40568 348.448 8.41693C347.471 8.43857 347.29 8.48392 347.875 8.73222C348.071 8.81029 348.2 8.88842 348.256 8.96172C348.312 9.03503 348.293 9.10197 348.2 9.15838C348.062 9.39183 347.639 9.5835 347.349 9.81183C347.799 9.96224 348.552 10.1229 348.634 10.3091C348.674 10.3504 348.757 10.3942 348.878 10.4372C348.999 10.4803 349.155 10.5216 349.335 10.5581C349.808 10.6369 350.238 10.7311 350.592 10.8335C350.945 10.9359 351.213 11.0437 351.375 11.1485C351.428 11.1918 351.555 11.2378 351.732 11.2772C351.909 11.3166 352.122 11.3466 352.328 11.361C352.575 11.3787 352.796 11.3763 352.945 11.3545C353.095 11.3326 353.161 11.2928 353.131 11.2433C353.137 11.1504 353.104 11.0536 353.033 10.9536C353.075 10.8842 353.116 10.8148 352.953 10.6998C353.689 10.7418 354.463 10.8259 355.188 10.9429C355.914 11.06 356.565 11.2055 357.07 11.3638C357.629 11.5275 358.144 11.6994 358.762 11.8909C358.635 12.1054 358.635 12.1054 359.952 12.4847L366.938 12.6696L368.37 12.9209C369.705 13.1398 370.023 13.1248 370.862 13.0116L371.426 12.9052C372.612 13.0515 373.977 13.22 374.719 12.9458C374.96 13.1246 375.117 13.1846 375.062 13.2117C374.708 13.4754 374.093 13.6992 373.241 13.8742C373.024 13.9151 372.871 13.9775 372.618 14.014C371.802 14.2199 371.613 14.5382 372.089 14.9036C372.325 15.0653 372.669 15.2309 373.108 15.3951C372.465 15.6229 371.613 15.8116 370.576 15.9563C369.695 16.0682 368.97 16.218 368.421 16.4015C367.928 16.5865 367.19 16.7256 366.249 16.8107C365.772 16.8469 365.424 16.9183 365.239 17.0179C365.184 17.2874 365.311 17.5759 365.615 17.877C365.673 17.9686 365.836 18.0676 366.091 18.1662C366.347 18.2647 366.689 18.3602 367.09 18.445C367.09 18.445 367.283 18.5095 367.376 18.5481C367.453 18.8744 367.164 19.162 366.527 19.3915C366.423 19.4566 366.209 19.5036 365.91 19.5275C365.61 19.5514 365.236 19.5512 364.827 19.527C363.963 19.4881 363.156 19.4833 362.32 19.4615C361.42 19.4306 360.627 19.4549 360.025 19.532C359.422 19.609 359.033 19.7358 358.897 19.8992C358.889 19.9454 358.862 19.9897 358.819 20.0317C358.793 20.0533 358.779 20.0765 358.777 20.1011L360.696 20.6359L358.525 20.8488C358.398 21.0634 359.44 21.192 359.962 21.3512L359.639 21.4401C359.224 21.4904 358.664 21.3942 358.157 21.3384L357.654 21.2763L357.594 21.3773C357.281 21.5147 356.139 21.3602 355.693 21.461C355.247 21.5618 355.565 21.6755 356.233 21.785C356.697 21.8664 357.196 21.9313 357.691 21.9748C358.186 22.0183 358.665 22.0393 359.092 22.0362C359.347 22.0254 359.558 22.0008 359.713 21.9639C360.614 21.8067 361.61 21.6716 362.692 21.5595C363.522 21.4588 364.561 21.416 365.737 21.434C366.081 21.4264 366.497 21.4503 366.911 21.5014C367.325 21.5525 367.711 21.6275 368 21.7134L368.609 21.7275C368.609 21.7275 368.942 21.8161 368.895 21.8305C368.663 22.0928 368.932 22.4133 369.662 22.7448L369.027 22.7748C368.12 22.7441 368.695 22.9437 368.56 23.0421C367.915 23.0235 367.077 22.9405 366.772 23.0653L366.314 23.0563L366.494 23.0784L366.711 23.0375L367.564 23.2241C367.16 23.2555 366.867 23.2938 366.51 23.3107C366.313 23.3254 366.156 23.3513 366.049 23.3869C365.941 23.4226 365.886 23.4672 365.885 23.518C365.886 23.5963 365.78 23.6622 365.576 23.7094C365.373 23.7566 365.079 23.7835 364.722 23.7876C364.297 23.7893 364.054 23.8744 363.804 23.9046L364.888 24.4176C364.888 24.4176 364.349 24.351 364.642 24.4414L364.68 24.3783L365.336 24.5067C365.809 24.6193 366.14 24.6466 366.419 24.5659C366.699 24.4853 366.635 24.5925 366.769 24.5617C366.72 24.6437 366.416 24.701 366.155 24.7501C365.854 24.7887 365.514 24.8171 365.141 24.8348C365.813 25.1955 365.846 25.2063 364.863 25.3017C363.881 25.3972 364.22 25.5406 363.398 25.5611C362.576 25.5815 363.51 25.8256 364.061 25.8732C364.468 25.9045 364.884 25.9532 365.28 26.016C365.675 26.0788 366.041 26.1543 366.351 26.2371L366.186 26.5147C365.944 26.4917 365.702 26.4618 365.467 26.426C364.671 26.2736 363.946 26.13 363.238 26.2186L363.575 26.4296L361.103 26.3073C361.167 26.4654 361.543 26.6454 362.154 26.8095C362.062 26.8996 362.005 26.9945 361.985 27.0934C361.944 27.1628 361.7 27.1192 361.541 27.1267C360.975 27.1383 360.51 27.1853 360.188 27.2636C359.865 27.3419 359.695 27.4491 359.692 27.5758C359.629 27.6831 360.499 27.9056 361.043 27.8983C362.402 27.9197 363.872 28.0022 365.373 28.1414C366.287 28.1595 366.417 27.8774 367.922 28.07C367.952 28.2002 367.759 28.3056 367.373 28.3703C366.986 28.4351 366.427 28.4556 365.78 28.4287C366.148 28.7179 368.186 28.7933 368.276 29.0957C367.769 29.0743 367.226 29.0241 366.702 28.9499C366.178 28.8757 365.691 28.7802 365.288 28.6727C365.201 28.6463 365.092 28.6218 364.971 28.6018C364.85 28.5817 364.72 28.5665 364.595 28.5578C364.469 28.5491 364.351 28.547 364.253 28.5517C364.154 28.5565 364.077 28.568 364.029 28.585C364.311 28.6944 364.621 28.8207 364.975 28.9389C365.329 29.0571 365.415 29.1082 365.67 29.133C367.574 29.368 368.479 29.7913 370.127 30.0691C370.558 30.1223 370.612 30.2914 370.237 30.2723C369.881 30.2532 369.559 30.2557 369.306 30.2796C369.054 30.3034 368.881 30.3477 368.807 30.4074C368.531 30.477 368.187 30.5325 367.784 30.5723C369.473 31.0066 371.488 31.3904 373.638 31.6876C374.045 31.7463 374.47 31.7821 374.85 31.7898C376.05 31.7902 377.324 31.8247 378.646 31.8925C379.114 31.911 379.547 31.9092 379.921 31.8874C381.148 31.8356 382.122 31.949 383.011 32.2687L384.484 32.7755C384.435 32.8576 384.188 32.949 383.998 33.0745L385.148 33.3451L393.926 32.7218L395.688 33.3253L398.215 33.2918C398.409 33.3092 398.604 33.3332 398.79 33.3627C399.301 33.5409 399.701 33.7122 400.255 33.8822C400.81 34.0522 401.8 34.0728 402.491 34.2732C403.182 34.4736 403.874 34.4777 404.728 34.5967C404.809 34.7518 404.726 34.8915 404.484 35.0069C404.406 35.1394 403.971 35.2212 403.896 35.3474C403.904 35.4749 403.743 35.5832 403.427 35.6624C403.11 35.7416 402.649 35.7892 402.084 35.801C400.502 36.0725 398.595 36.2659 396.42 36.3752C396.229 36.3832 396.07 36.4015 395.955 36.4291C395.839 36.4568 395.768 36.4931 395.746 36.5358C395.749 36.6596 395.604 36.7666 395.321 36.8489C395.039 36.9312 394.626 36.9868 394.113 37.0116C393.977 37.0165 393.873 37.0321 393.817 37.0563C393.622 37.0719 393.48 37.1017 393.405 37.1429C393.33 37.1841 393.324 37.2352 393.387 37.2914C393.451 37.3476 393.582 37.4069 393.768 37.4636C393.954 37.5203 394.188 37.5725 394.448 37.6151C394.826 37.6837 395.212 37.7494 395.604 37.8119C395.582 37.8497 395.192 37.8559 395.249 37.89C395.403 37.9989 395.438 38.1008 395.353 38.1879C395.268 38.2749 395.064 38.3446 394.758 38.3915L396.856 39.2735C398.129 39.3957 399.379 39.6029 400.366 39.8557C400.368 39.8971 400.311 39.9319 400.201 39.9564C400.092 39.9809 399.934 39.9944 399.743 39.9956C399.231 40.0136 398.747 40.0487 398.196 40.0687C397.858 40.0836 397.578 40.1164 397.37 40.1651C397.162 40.2139 397.031 40.2777 396.985 40.3528L398.217 40.6809C397.823 40.7608 397.53 40.7992 397.269 40.8483C397.417 40.9514 397.671 41.0581 398.011 41.16C398.352 41.2619 398.77 41.3564 399.234 41.4362C399.358 41.4526 399.484 41.4646 399.606 41.4715C399.728 41.4784 399.842 41.48 399.943 41.4762C400.896 41.3637 402.012 41.5624 403.096 41.7503C404.18 41.9383 404.768 42.0515 405.569 42.1977L407.1 42.2173C407.487 42.2865 407.833 42.3679 408.109 42.4549C408.386 42.5419 408.585 42.6322 408.691 42.7185C408.609 42.8573 407.883 42.7812 407.45 42.7956C406.423 42.8819 405.073 42.8635 403.624 42.7433C403.265 42.699 402.896 42.7348 402.547 42.739C401.793 42.7563 401.068 42.7844 400.376 42.8232C399.92 42.8594 399.494 42.9041 399.1 42.9571C398.995 43.1338 400.65 43.2702 399.711 43.3575C400.034 43.3974 400.155 43.453 400.321 43.4329C401.387 43.5476 402.436 43.6043 403.348 43.5965C405.098 43.5721 407.086 43.6526 409.148 43.8314C411.373 44.0166 413.508 44.0943 415.376 44.0583C416.088 44.0561 416.883 44.0941 417.702 44.1691C418.668 44.2731 419.628 44.3385 420.519 44.361C420.813 44.3618 421.142 44.3795 421.478 44.4127C421.813 44.4458 422.146 44.4935 422.449 44.5519C422.423 44.596 422.134 44.6281 422.198 44.6496C423.12 44.9801 423.494 45.3242 424.913 45.6619C425.883 45.7816 426.997 45.9191 427.631 45.7603C428.266 45.6016 428.038 45.4651 426.776 45.0588C427.05 45.0529 427.38 45.0719 427.708 45.1124C428.036 45.1529 428.342 45.2124 428.572 45.2805L429.664 45.5845L430.648 45.8753C430.562 46.0204 430.494 46.134 430.423 46.2538C430.31 46.3812 430.434 46.5362 430.776 46.6971C430.983 46.7849 431.163 46.8728 431.314 46.9599C431.93 47.3082 432.108 47.6374 431.829 47.9105C431.295 48.3034 430.55 48.6648 429.605 48.9906C428.607 49.3076 428.06 49.7075 427.238 50.053C426.818 50.2103 426.309 50.3513 425.714 50.4745C424.587 50.7485 423.352 51.0092 422.221 51.2896C421.091 51.5699 419.814 51.7712 418.558 52.0023C416.688 52.2765 414.667 52.5133 412.505 52.7114C411.168 52.885 409.795 53.0541 408.557 53.2536C407.096 53.4785 405.38 53.64 403.451 53.7341C401.747 53.8467 400.225 54.0133 398.913 54.2306C398.775 54.2541 398.667 54.284 398.59 54.3195C398.354 54.5411 397.692 54.6973 396.706 54.7642C396.766 54.829 396.843 54.895 396.936 54.9618C397.072 55.0414 397.101 55.1159 397.017 55.1756C396.934 55.2353 396.742 55.2775 396.466 55.2967C395.677 55.3516 395.022 55.4448 394.528 55.5722C394.347 55.6042 394.235 55.6508 394.201 55.7079C394.167 55.7651 394.212 55.8311 394.333 55.9003C394.44 55.9716 394.448 56.0372 394.356 56.0886C394.263 56.14 394.075 56.1748 393.815 56.1885C393.147 56.256 392.432 56.3103 391.674 56.351C390.062 56.4409 388.186 56.4398 386.161 56.3479C385.945 56.3212 385.728 56.3622 385.477 56.3311C384.044 56.2281 382.714 56.2122 381.647 56.2852C380.396 56.3137 379.088 56.308 377.769 56.3213C375.863 56.3124 374.105 56.3666 372.544 56.4824C370.759 56.3705 369.756 56.565 368.25 56.5687C366.859 56.5887 365.541 56.6367 364.308 56.7121C362.32 56.8122 360.34 56.8996 358.38 57.0167C356.542 57.0726 354.85 57.1793 353.332 57.335C352.75 57.4055 351.697 57.2958 351.3 57.4433C350.904 57.5908 350.104 57.5734 349.458 57.6223L347.419 57.7432C347.069 57.7719 346.683 57.7902 346.269 57.7976C344.373 57.8074 343.06 58.0044 341.301 58.0446L341.121 58.0224C337.997 58.3152 334.422 58.4759 330.501 58.4997C328.211 58.5896 325.707 58.5853 323.276 58.651C322.697 58.7827 321.328 58.6205 320.601 58.7407C319.873 58.8609 318.686 58.7821 317.749 58.8019C316.811 58.8216 315.895 58.8711 314.893 58.8694C314.023 58.8699 313.289 58.9236 312.756 59.0255C311.541 59.194 310.06 59.2931 308.378 59.3183C306.154 59.3621 304.051 59.4614 301.788 59.4396C301.821 59.5624 301.682 59.6668 301.386 59.7422C301.091 59.8176 300.649 59.8612 300.106 59.8686C297.687 59.9154 295.493 60.0375 293.042 60.0736L292.386 60.074L285.055 60.1444C283.08 60.158 281.177 60.1805 279.162 60.196C278.408 60.1029 278.39 60.2632 277.868 60.2327C277.722 60.1537 277.55 60.1189 277.293 60.1617L277.237 60.2563L268.87 60.3819C265.594 60.4737 262.149 60.5012 258.562 60.4643C257.711 60.4736 256.917 60.5049 256.192 60.5579C255.521 60.5772 254.82 60.5857 254.095 60.5834C253.114 60.5596 252.156 60.5475 251.224 60.5474C248.772 60.5835 246.2 60.564 243.516 60.5375C240.832 60.5111 238.799 60.5581 236.41 60.5545C234.792 60.5512 233.181 60.5353 231.507 60.498C230.707 60.4806 229.722 60.3861 228.894 60.3516C228.066 60.3172 227.796 60.3177 227.686 60.3719C227.326 60.5238 226.42 60.4256 225.696 60.4107C224.284 60.3855 224.084 60.3336 223.7 59.9409L225.433 59.8161C225.857 59.7758 226.391 59.7687 226.983 59.7955C227.576 59.8223 228.206 59.8821 228.813 59.9691C229.052 60.0064 229.302 60.0359 229.548 60.0558C229.794 60.0757 230.032 60.0858 230.248 60.0853C231.996 60.064 233.72 60.0193 235.4 59.9829L235.645 59.959L235.661 59.6087C235.439 59.5743 235.208 59.5459 234.978 59.5245L226.551 59.2972C224.618 59.2414 222.61 59.1155 220.712 59.0642C218.814 59.0128 217.792 58.9814 216.319 58.9284C215.698 58.8981 215.064 58.8584 214.423 58.8095C214.46 58.7758 214.481 58.7399 214.487 58.7022C214.52 58.6454 214.565 58.5697 214.293 58.509C213.996 58.4233 213.599 58.3501 213.181 58.304C212.788 58.2736 212.408 58.2564 212.054 58.253C210.345 58.2237 208.393 58.0387 206.614 57.7374L205.993 57.9385C203.322 57.8256 200.611 57.7145 197.821 57.6072C197.263 57.5779 196.676 57.5218 196.106 57.4429C195.495 57.3676 194.933 57.2102 194.29 57.124C193.655 57.062 193.024 57.0137 192.409 56.9799C192.576 56.9282 192.795 56.8868 193.061 56.8571C193.322 56.8467 193.513 56.8144 193.604 56.7649C193.696 56.7153 193.685 56.6511 193.572 56.5816C193.373 56.4622 193.285 56.3498 193.718 56.3355C194.118 56.3083 194.404 56.2494 194.543 56.1657C194.681 56.082 194.667 55.977 194.5 55.8632C194.428 55.7966 194.376 55.7314 194.347 55.6681L194.167 55.6459C193.574 55.4102 192.391 55.3251 191.541 55.1322C191.14 55.0763 190.725 55.0441 190.362 55.0408C189.422 54.9994 188.507 54.9813 187.535 54.9291C187.071 54.9051 186.586 54.8613 186.108 54.8003C185.425 54.716 185.353 54.7072 184.957 54.4009C185.573 54.4063 186.061 54.3605 186.338 54.2714C186.616 54.1823 186.667 54.0553 186.482 53.9119C185.974 53.5986 185.438 53.2683 183.141 53.0457C183.89 53.0347 184.611 53.0129 185.301 52.9804C185.501 52.9734 185.651 52.9504 185.731 52.9145C185.811 52.8785 185.816 52.8314 185.747 52.7793C185.677 52.7273 185.535 52.6728 185.341 52.6232C185.147 52.5736 184.909 52.5312 184.66 52.5017C183.447 52.3245 182.182 52.2059 181.007 52.1593C180.016 52.1386 179.122 52.1502 177.965 52.1497L176.6 51.9812C176.623 51.9433 176.422 51.8915 176.473 51.8707C176.82 51.6765 177.203 51.4867 177.597 51.2779C176.967 51.1652 176.422 51.0292 176.023 50.8853C175.625 50.7415 175.389 50.5957 175.342 50.4647C175.308 50.4251 175.317 50.3891 175.368 50.3591C175.42 50.3292 175.512 50.306 175.638 50.2912C175.998 50.2659 176.275 50.2175 176.449 50.1497C176.623 50.082 176.689 49.9967 176.642 49.9004L175.58 49.5459C172.383 49.2929 169.244 49.1122 166.22 49.007L163.491 48.9275C163.162 48.8327 163.263 48.7911 163.573 48.7887C163.883 48.7863 164.755 48.8126 165.363 48.8268C165.889 48.8454 166.356 48.8332 166.719 48.7913C167.081 48.7495 167.328 48.6794 167.434 48.5879L166.517 48.1836C166.562 48.1079 166.626 48.0006 167.123 48.0078C167.463 47.999 167.713 47.9609 167.834 47.8996C167.954 47.8383 167.938 47.7573 167.787 47.6698C167.764 47.6065 167.799 47.5488 167.888 47.4994C168.624 47.4953 169.355 47.4976 170.022 47.4783C170.333 47.4719 170.595 47.4485 170.791 47.4096C170.988 47.3707 171.113 47.3172 171.159 47.2529C171.183 47.1901 171.124 47.1185 170.988 47.044C170.851 46.9695 170.641 46.8942 170.373 46.824C169.327 46.7372 168.371 46.7361 167.713 46.8209C167.479 46.8874 167.103 46.9237 166.634 46.925C166.165 46.9264 165.625 46.8927 165.086 46.8285C164.469 46.7545 163.854 46.722 163.35 46.7368C162.846 46.7516 162.488 46.8128 162.339 46.9093C161.705 46.8718 161.144 46.8431 160.59 46.8019C159.937 46.7498 159.319 46.7345 158.804 46.7575C157.979 46.7738 157.091 46.7642 156.159 46.7291C153.473 46.6414 150.783 46.5601 148.183 46.5235C147.495 46.5131 146.899 46.5412 146.219 46.5182C145.538 46.4952 145 46.5574 144.149 46.4321C143.987 46.4126 143.824 46.4001 143.672 46.3955C143.521 46.391 143.386 46.3945 143.277 46.4058C141.783 46.5049 140.031 46.5189 138.123 46.447C135.511 46.4294 132.803 46.3795 130.187 46.3683C129.42 46.378 128.695 46.404 128.019 46.4462C127.505 46.4716 126.967 46.4888 126.407 46.4978C125.978 46.5058 125.568 46.4823 125.641 46.6199C125.713 46.7575 125.07 46.6714 124.699 46.6459C123.426 46.5792 122.125 46.4889 120.811 46.376C119.515 46.2532 118.246 46.1818 117.079 46.166C116.236 46.1568 115.366 46.1917 114.283 46.0038C114.324 45.9344 114.365 45.8649 114.601 45.7925C113.717 45.5931 112.709 45.4215 111.659 45.292C110.609 45.1624 109.549 45.0786 108.565 45.0475L107.208 44.6701C106.874 44.6258 106.533 44.5935 106.206 44.5753C105.878 44.557 105.572 44.5531 105.304 44.5639C105.098 44.5693 104.846 44.5553 104.595 44.5243C104.344 44.4934 104.111 44.4476 103.939 44.3954C103.681 44.3289 103.367 44.2716 103.034 44.2306C102.702 44.1895 102.367 44.1667 102.071 44.1648C101.138 44.1237 100.143 44.029 99.1872 43.8902C98.939 43.8088 98.7836 43.7248 98.7399 43.6484C98.6963 43.572 98.7664 43.5066 98.9416 43.4603C99.224 43.3785 99.3826 43.2743 99.4077 43.154C99.4329 43.0337 99.324 42.8998 99.0878 42.7604C98.9669 42.6749 98.9264 42.5939 98.969 42.5223C99.0116 42.4507 99.1362 42.3901 99.3355 42.344C100.079 42.131 99.8803 42.0117 98.6634 41.6583C98.4658 41.5994 98.2275 41.5443 97.9637 41.4966C97.7 41.4489 97.4166 41.4096 97.1313 41.3812C96.4621 41.3236 95.802 41.2808 95.1632 41.2534C94.8039 41.2091 94.4355 41.2449 94.0215 41.2277C91.9515 41.1415 91.6485 41.0025 90.9782 40.7031L90.4896 40.487C89.5835 40.312 88.5925 40.1666 87.5881 40.0614C86.5836 39.9562 85.5907 39.8937 84.6809 39.8785C84.3192 39.8773 83.9034 39.8474 83.4973 39.7934C82.1755 39.628 80.8369 39.5136 79.5702 39.4577C78.7809 39.4262 77.93 39.3448 77.1198 39.2232C76.3096 39.1016 75.5744 38.9449 75.0028 38.7721C74.4893 38.6164 73.8174 38.4767 73.0808 38.3724C72.2185 38.266 72.1386 38.141 72.6202 38.0446C73.1017 37.9483 73.9082 37.8243 74.6241 37.723C74.8732 37.6886 75.0275 37.6327 75.0699 37.5613C75.1123 37.49 75.0411 37.4062 74.8642 37.3192C74.7507 37.1704 74.731 37.0291 74.8057 36.8989C74.8456 36.8448 74.818 36.7827 74.7249 36.7169C74.6317 36.6511 74.4751 36.5831 74.2656 36.5174C74.0561 36.4518 73.7986 36.39 73.5105 36.3364C73.2223 36.2827 72.9101 36.2383 72.5951 36.2062C71.2657 36.0421 69.9722 35.8825 68.6165 35.7626C68.0484 35.7061 67.4809 35.636 66.9278 35.5542C65.7958 35.3517 64.5847 35.1838 63.3649 35.0603C62.7859 35.005 62.22 34.9084 61.7894 34.7913C60.4313 34.4759 59.1799 34.1443 58.0579 33.8025C57.7874 33.6965 57.4336 33.5931 57.0185 33.4987C56.6034 33.4044 56.136 33.3212 55.6457 33.2543C55.2505 33.2055 54.9288 33.0981 54.6242 33.0266C54.4028 32.8611 54.3791 32.708 54.5554 32.5817C54.7318 32.4554 55.1023 32.36 55.6322 32.3044C56.1346 32.2378 56.6048 32.1603 57.0392 32.0785C57.5628 32.0123 58.1852 31.9726 58.8834 31.9607C59.7103 31.9252 60.3217 31.8236 60.638 31.6693C58.3744 31.3899 56.2218 30.9888 54.2377 31.0826L52.7302 30.8288C52.7902 30.7279 52.8427 30.6395 52.8915 30.5575C53.2501 30.4082 53.362 30.2199 53.218 30.0086C53.0992 29.9063 53.11 29.8133 53.249 29.7389C53.3881 29.6645 53.6506 29.6113 54.01 29.5848C56.1389 29.3125 58.6008 29.1287 60.5972 28.8198C61.2232 28.7618 61.9559 28.7355 62.7647 28.7419C63.5471 28.7233 63.5144 28.5838 62.614 28.4117C62.1086 28.3218 61.5935 28.2357 61.0706 28.1535C58.7647 28.1399 57.8253 28.5522 55.1939 28.4374L53.9743 27.8941C53.6444 27.8857 53.3243 27.8823 53.016 27.8842L48.6038 28.1049C48.2363 28.116 47.9502 28.1537 47.778 28.2139C47.6059 28.2741 47.5546 28.3542 47.6299 28.4453C47.6598 28.5567 47.5991 28.6588 47.4498 28.7481C47.3536 28.8106 47.4152 28.8937 47.621 28.9792C48.0849 29.1719 47.4897 29.2 47.1138 29.2485C47.0177 29.2532 46.9069 29.2527 46.7878 29.247C46.6687 29.2413 46.5437 29.2305 46.42 29.2152C46.2964 29.1999 46.1765 29.1805 46.0674 29.1581C45.9583 29.1356 45.8621 29.1106 45.7844 29.0844C45.1221 28.9011 44.5428 28.7077 43.8918 28.5054C44.354 28.3119 43.8101 27.9942 44.5314 27.8191C44.612 27.7841 44.6443 27.7415 44.6262 27.6938C44.6081 27.6461 44.5401 27.5945 44.4262 27.5419C44.1325 27.4064 43.9926 27.2742 44.0207 27.1587C44.0487 27.0433 44.2437 26.9486 44.5859 26.8844L44.6272 26.815C43.7246 26.5817 43.9638 26.3742 43.6092 26.1272L42.741 25.9659C40.5809 25.5774 40.5771 25.5837 38.7174 25.598C38.3425 25.4502 38.8188 25.4277 39.176 25.4108L42.1672 25.2449C44.1229 25.1341 46.1354 25.0574 48.3201 25.0155C50.5048 24.9736 52.9404 24.8339 55.1985 24.7334C55.3127 24.7256 55.4001 24.7102 55.4532 24.6885C55.5064 24.6667 55.5238 24.6393 55.5042 24.6085C55.4144 24.5752 55.2969 24.5431 55.1604 24.5145C55.0238 24.486 54.8717 24.4617 54.7153 24.4435C53.9967 24.3548 53.2594 24.2976 52.4936 24.2235L51.066 24.0947L50.6268 23.9253C50.341 23.8223 50.1457 23.6967 49.7655 23.6226C49.4521 23.5674 49.112 23.5255 48.7805 23.5013C48.4489 23.4771 48.1382 23.4714 47.8806 23.4848C47.1663 23.5186 46.5201 23.5675 45.838 23.612C45.1559 23.6565 44.78 23.7049 44.1885 23.7267C42.9867 23.7367 41.8253 23.7629 40.7093 23.8053C39.7693 23.9057 38.8999 24.0246 38.1064 24.1613C37.6115 24.2154 37.1486 24.2802 36.3035 24.2097C35.9025 24.1458 35.5567 24.0619 35.3273 23.9729C35.0979 23.8838 34.9997 23.7954 35.0502 23.7232C35.0955 23.6666 35.2239 23.6219 35.4232 23.5931C35.6225 23.5644 35.8861 23.5526 36.1891 23.559C37.0375 23.5486 37.822 23.5136 38.5267 23.4547C39.5077 23.3479 40.7019 23.3019 42.0397 23.3193C42.4933 23.3347 42.7974 23.2774 43.1942 23.2586C43.5911 23.2399 43.9272 23.1933 44.3696 23.2276C45.7441 23.316 46.4031 23.1806 47.2268 23.0926C47.5056 23.0536 47.6783 22.9906 47.726 22.9104C47.7737 22.8302 47.6945 22.7361 47.497 22.6383C47.1168 22.4436 46.6518 22.2477 46.1091 22.0539C45.8298 21.9586 45.472 21.8681 45.0637 21.7895C44.6554 21.711 44.2078 21.6464 43.7559 21.6009C43.4854 21.4817 43.3411 21.3644 43.3361 21.2597C43.331 21.155 43.4653 21.0662 43.7269 21.0014C44.3934 20.8534 44.9843 20.7028 46.4778 20.7855C47.18 20.8171 47.8408 20.8232 48.434 20.8035C49.7498 20.7764 51.2675 20.8356 52.8442 20.9753C53.2521 21.011 53.6531 21.0354 54.0353 21.0478C56.7611 21.1336 59.3581 21.1764 61.9627 21.2066C63.3425 21.2211 64.7335 21.2167 66.1739 21.259C69.5518 21.3508 72.6267 21.3037 75.8871 21.3335C77.5947 21.3489 79.1231 21.2871 80.3922 21.1513C80.6393 21.1058 80.8516 21.0527 81.0265 20.9926C80.1855 20.8348 79.2617 20.7099 78.3437 20.6298C77.4256 20.5497 76.5441 20.5171 75.7835 20.5351C75.3653 20.5793 74.8248 20.5874 74.2223 20.5585C73.6198 20.5295 72.979 20.4648 72.3712 20.3714L74.1382 20.3186C75.3099 20.2938 76.51 20.2862 77.6496 20.2507C79.46 20.1897 81.1378 20.092 83.0126 20.0525C84.5261 20.0161 85.8806 19.9232 87.0334 19.7766C87.8661 19.6697 88.8173 19.5939 89.8674 19.5507C90.6139 19.5277 90.6139 19.5277 91.0911 19.3089C90.7125 19.1674 90.2229 19.1476 89.7618 19.1449C86.9969 19.0558 84.3656 19.0402 81.9217 19.0984C80.6886 19.1035 79.5947 19.1635 78.6924 19.2755C78.4715 19.3227 77.9062 19.3004 77.4526 19.285C76.0304 19.2617 74.6711 19.2685 73.391 19.3053C71.6212 19.3666 69.6501 19.3521 67.5544 19.2622C67.157 19.1522 67.6144 19.1612 67.6369 19.1234C69.2601 19.0528 70.8512 18.9715 72.5066 18.9117C72.9591 18.8904 73.4429 18.8798 73.9524 18.8801C75.8544 18.9172 77.4394 18.8145 78.4853 18.5862C78.5378 18.4979 79.2258 18.5083 79.5299 18.451C79.6795 18.4014 79.779 18.343 79.8258 18.2776C79.3828 18.1146 78.882 18.1137 78.4964 18.1135C77.3776 18.1317 76.3012 18.1662 75.2726 18.2168C74.3163 18.265 73.2578 18.2779 72.1257 18.2551C71.2902 18.2333 70.576 18.2671 69.733 18.2578C69.2757 18.2384 68.8024 18.2073 68.3226 18.165C68.8568 18.0514 69.5829 17.9815 70.45 17.9603C71.1074 17.8924 71.9294 17.872 72.0345 17.6953C71.724 17.5689 71.3781 17.5669 71.1003 17.58C70.5221 17.5795 69.9636 17.5875 69.4278 17.6039C68.2915 17.6398 67.0613 17.6403 65.763 17.6053C65.0793 17.5923 64.4305 17.5962 63.8276 17.6171C62.4613 17.6448 61.1517 17.7067 59.9007 17.7352C57.3379 17.7643 55.0005 17.8686 52.538 17.9237C51.99 17.9373 51.4987 17.985 50.7763 17.9027C50.054 17.8203 50.0219 17.8095 49.9366 17.7584C49.7344 17.673 49.6732 17.5903 49.7655 17.5273C49.9088 17.4685 50.1879 17.4358 50.5532 17.4349C52.7544 17.3413 54.8424 17.2099 56.8038 17.0414C57.6669 17.0077 58.4233 16.9389 59.0463 16.8373C59.5404 16.7674 60.1266 16.7211 60.7864 16.6999C61.746 16.6494 62.7464 16.6123 63.7835 16.589C64.2661 16.5764 64.6764 16.539 64.9903 16.4788C65.3043 16.4187 65.5155 16.3371 65.6115 16.2389L64.3401 15.9127C64.1403 15.8975 63.9421 15.8843 63.7464 15.8733L53.1935 16.1083L52.1483 16.1147C51.0029 16.0953 50.723 16.0472 49.6364 15.6693C52.1161 15.5803 54.0654 15.3212 55.2901 14.9177C54.9957 14.8743 54.694 14.837 54.3918 14.8068C52.4102 14.7114 50.5369 14.686 48.8442 14.7317C47.8387 14.7363 46.8049 14.7238 45.7672 14.7177C46.0707 14.5316 47.2333 14.5871 47.991 14.5451C49.8014 14.4795 51.4024 14.3439 52.7427 14.1428C53.2048 14.0643 53.7829 14.0142 54.4506 13.9946C55.1188 13.9879 55.6769 13.9404 56.0764 13.8563C56.476 13.7722 56.7048 13.6541 56.7429 13.5122C56.8059 13.3837 56.9416 13.2643 57.1478 13.1558C56.7829 13.0018 56.2033 12.8544 55.518 12.7411C54.8327 12.6279 54.0887 12.5566 53.4256 12.5407C52.01 12.4773 50.5418 12.3735 49.0583 12.2319C48.3193 12.1606 47.5947 12.1196 46.9315 12.1117C46.3466 12.1056 45.6818 12.0541 45.0385 11.9649C44.3952 11.8757 43.8087 11.7538 43.3685 11.6178C42.7743 11.4496 42.2197 11.2796 41.6652 11.1096C41.1107 10.9396 40.4672 10.7247 39.8199 10.5161C39.2492 10.4835 38.6934 10.4626 38.1602 10.4535C37.7453 10.4612 37.2612 10.4384 36.765 10.388C36.2688 10.3376 35.7812 10.2615 35.3597 10.1689C35.6069 10.0775 35.8864 9.99681 36.1808 9.89092C35.7767 9.75109 35.4837 9.60849 35.3197 9.47181C35.1556 9.33513 35.124 9.20723 35.2266 9.09591C35.2867 8.99496 34.8474 8.82561 34.6956 8.69175C34.5002 8.57635 34.4635 8.46865 34.5903 8.38278C34.7171 8.2969 35.0015 8.23687 35.4061 8.21054C35.908 8.16194 36.3165 8.08876 36.6148 7.99399C36.7135 7.96939 36.7637 7.9357 36.7609 7.89599C36.7581 7.85629 36.7023 7.81185 36.5987 7.76673C36.4951 7.7216 36.347 7.67724 36.1678 7.6377C35.9887 7.59816 35.7843 7.56469 35.5733 7.54037C34.927 7.47142 34.2851 7.42673 33.6846 7.40887C32.65 7.376 31.6595 7.35535 30.7132 7.34692C29.6666 7.33424 28.5023 7.25597 27.3385 7.12006C26.2965 6.99147 25.3623 6.87618 24.8529 6.63044C24.3434 6.3847 23.5288 6.39254 22.9024 6.21364C23.2542 6.05238 23.8796 5.94034 24.7155 5.88882C25.2624 5.87043 25.7189 5.82216 26.0558 5.7471C26.3927 5.67205 26.6024 5.57186 26.6716 5.45298L24.77 4.95416C23.2512 4.71932 22.411 4.90007 20.77 4.80591L22.4608 4.62177C22.4948 4.60357 22.5075 4.5822 22.4983 4.55868C22.3342 4.18624 22.073 4.1066 20.3446 3.90007L19.3745 3.78035L17.8392 3.63827C17.5933 3.56194 17.4232 3.48235 17.346 3.40744C17.2687 3.33253 17.2869 3.26495 17.3989 3.21144C17.6238 3.12144 17.6922 3.00645 17.5977 2.87703C17.4488 2.79131 17.4365 2.71228 17.563 2.65366C17.6894 2.59503 17.9467 2.56052 18.29 2.55611C18.564 2.5493 18.5844 2.45022 18.7334 2.39412C18.8816 2.3168 19.1351 2.25746 19.4767 2.22016C19.8184 2.18285 20.24 2.16843 20.7132 2.17791C22.1082 2.18565 23.4187 2.15663 24.6214 2.09135L24.4058 2.06474C25.6594 2.12205 26.8314 2.129 27.8646 2.08526C28.9001 2.03019 30.229 2.06552 31.3289 2.03194C32.2243 2.03964 32.9059 1.96343 33.2293 1.81949C33.5424 1.68205 34.6804 1.71413 35.5518 1.7404C36.068 1.75739 36.5669 1.7646 37.0432 1.76192C37.6824 1.73081 38.4817 1.76014 39.3078 1.845C39.5556 1.87109 39.7998 1.88489 40.0167 1.88509C42.1167 1.92076 44.2129 1.96273 46.2844 1.98135C46.7626 1.97063 47.3233 1.99519 47.9007 2.05214C48.1434 2.07687 48.3796 2.08712 48.5775 2.08149C51.8508 2.02493 55.5445 2.16925 58.7534 2.0912C59.1423 2.07277 59.5729 2.06893 60.033 2.0798C61.0667 2.12565 61.9644 2.09614 62.5898 1.99576C62.9272 1.94237 63.3598 1.91296 63.8599 1.90938C64.3601 1.90581 64.9168 1.92816 65.4947 1.97501C66.4563 2.03704 67.345 2.04376 68.067 1.99448C69.4749 1.94894 70.9555 1.93022 72.4971 1.93845C72.9694 1.94642 73.3846 1.92872 73.7106 1.88673C74.0365 1.84475 74.2644 1.77959 74.3765 1.69632C73.9979 1.55478 73.584 1.53756 73.1909 1.55C71.6674 1.51774 70.1476 1.47918 68.6526 1.46398C67.3144 1.42056 66.0304 1.40729 64.8194 1.42436C64.2181 1.44361 63.4678 1.39971 62.7323 1.30223C61.8308 1.17878 60.9023 1.11744 60.1346 1.13063C59.5654 1.13391 58.9646 1.12328 58.3408 1.09889C57.9416 1.06948 57.5324 1.01898 57.1552 0.952564C57.0055 0.923719 56.8426 0.899464 56.6768 0.881356C56.5111 0.863248 56.3463 0.851694 56.1928 0.847406C56.0393 0.843118 55.9004 0.846194 55.7853 0.856457C55.6701 0.86672 55.5811 0.883944 55.5239 0.907012C54.9464 1.09987 53.6551 1.00145 52.5493 0.980115C50.8922 0.653703 49.6589 0.846902 48.1102 0.662537C47.9877 0.650317 47.867 0.64291 47.7556 0.640797C47.6441 0.638683 47.5442 0.641902 47.4618 0.650243C44.4647 0.761208 40.9716 0.668731 37.8248 0.707051C37.4778 0.712654 37.075 0.693452 36.6622 0.651618C33.9646 0.374741 31.371 0.296137 29.3884 0.431178C29.1472 0.443339 28.8728 0.443856 28.5776 0.432703C27.2221 0.322666 25.9258 0.278792 24.797 0.304751C23.0279 0.296369 21.3269 0.303165 19.5294 0.277729C18.2903 0.241538 17.2033 0.280203 16.3773 0.389877C16.351 0.434043 15.8008 0.386449 15.3793 0.381839C15.1369 0.270652 14.9267 0.170222 14.6768 0.0716538C14.4534 -0.0502906 14.1187 -0.173698 13.6956 -0.290183C13.2725 -0.406668 12.7708 -0.513511 12.2244 -0.603497C11.2902 -0.718787 11.1968 -0.886088 11.8505 -0.947639C13.5353 -1.15128 15.654 -1.23462 18.0506 -1.19156C20.0541 -1.18812 22.0935 -1.18024 24.1254 -1.15974C25.3105 -1.14216 26.5599 -1.10311 27.7128 -1.09627C28.1019 -1.08124 28.5015 -1.0591 28.9076 -1.03008C29.4059 -0.988001 29.8897 -0.965074 30.333 -0.962527C31.7564 -0.997963 33.3448 -0.967091 35.0226 -0.871389C35.6372 -0.850517 36.2273 -0.843487 36.7842 -0.850391C38.1017 -0.87637 39.53 -0.857253 41.0313 -0.793545C41.9644 -0.757623 42.8692 -0.738835 43.7362 -0.73739C44.0424 -0.733463 44.2918 -0.763643 44.5867 -0.740788C47.1828 -0.50167 49.021 -0.674385 51.3575 -0.582435C52.4931 -0.556796 53.578 -0.556725 54.597 -0.582216C56.5856 -0.580983 58.6297 -0.554768 60.721 -0.503677C63.4865 -0.419734 66.0492 -0.448861 68.6897 -0.414204C69.211 -0.406922 69.7144 -0.40816 70.1961 -0.417924C72.5395 -0.482428 75.0847 -0.468748 77.7697 -0.377221C78.3794 -0.363996 78.9269 -0.380167 79.3781 -0.424703C79.8293 -0.46924 80.1744 -0.541189 80.3918 -0.636048C80.4838 -0.701151 80.4242 -0.785713 80.2245 -0.873418C79.8931 -0.985426 79.5189 -1.09517 79.108 -1.20084L64.1619 -1.55544C63.5342 -1.57396 62.922 -1.58393 62.3285 -1.5853C60.583 -1.58839 58.7837 -1.61597 56.9397 -1.66792C55.1175 -1.71672 53.3768 -1.70806 51.6114 -1.72275C51.0914 -1.72767 50.5577 -1.73929 50.0124 -1.75755C46.3264 -1.90215 42.7321 -1.99047 39.255 -2.02187C37.7921 -2.02633 36.2117 -2.09269 34.7204 -2.1142C33.2291 -2.13571 31.1897 -2.14359 29.4206 -2.15197L23.9434 -2.15068C22.866 -2.15496 21.8171 -2.14219 20.7719 -2.13573C19.5036 -2.59703 19.0665 -2.70515 17.3741 -2.90725C16.7951 -2.9818 16.2061 -3.02629 15.6763 -3.03551C13.9962 -2.99904 11.8882 -3.15084 10.295 -3.13074C9.33361 -3.14065 8.51785 -3.08941 7.93121 -2.98225C7.42196 -2.89815 6.83962 -2.8316 6.1932 -2.78362C4.42241 -3.17825 4.26636 -3.43455 5.59839 -3.53428C5.95929 -3.55747 6.45639 -3.5503 6.717 -3.5994C6.86653 -3.62931 7.07081 -3.64642 7.31355 -3.64937C7.55629 -3.65233 7.83078 -3.64106 8.11549 -3.61644C9.01407 -3.55186 9.85629 -3.53667 10.5577 -3.5724C11.2177 -3.61969 12.0268 -3.61781 12.9069 -3.56692C13.5537 -3.4871 14.1221 -3.5998 14.6814 -3.63236C15.2407 -3.66493 15.6997 -3.72342 16.5733 -3.63593C16.7333 -3.61851 16.8921 -3.60804 17.0376 -3.60535C17.183 -3.60266 17.3113 -3.60781 17.4125 -3.62039C18.3508 -3.67674 19.4704 -3.67082 20.6805 -3.60312C22.5364 -3.53649 24.2778 -3.53399 25.8441 -3.5957C26.7817 -3.6497 27.5811 -3.74546 28.2111 -3.87925C28.3828 -3.924 28.6377 -3.95083 28.9516 -3.95717C30.5275 -3.92926 32.2387 -3.8242 33.9748 -3.64878C34.6288 -3.57849 35.2819 -3.52289 35.9203 -3.48317C37.2324 -3.39493 38.5013 -3.34548 39.6897 -3.33629C41.4164 -3.33483 43.2143 -3.30088 45.0673 -3.23474C46.2108 -3.19791 47.3127 -3.18432 48.3598 -3.19411C49.4361 -3.19873 50.5853 -3.17063 51.7812 -3.11049C52.9705 -3.06148 54.0187 -3.08971 54.7992 -3.19179C55.0562 -3.24679 55.2632 -3.31211 55.4164 -3.38652C53.675 -3.62864 51.874 -3.7517 50.376 -3.7309C49.8071 -3.74693 49.3346 -3.73074 48.7351 -3.82505L48.7163 -3.79351C48.597 -3.77304 48.417 -3.76821 48.2106 -3.77994C48.0042 -3.79167 47.7859 -3.81914 47.5972 -3.85712C47.6685 -3.977 47.736 -4.09057 47.7848 -4.1726C48.9261 -4.15813 50.0343 -4.1593 51.1037 -4.17612C52.0052 -4.20032 53.2289 -3.98834 54.0091 -4.06814C55.531 -3.96835 56.5 -4.10612 57.8648 -4.06637C59.2296 -4.02662 60.7327 -3.89529 62.0975 -3.85553C63.2884 -3.83372 64.4447 -3.82897 65.5601 -3.84133C65.945 -3.85867 66.3889 -3.8546 66.8642 -3.82937C67.5325 -3.78191 68.1541 -3.77395 68.6577 -3.80643C69.1613 -3.8389 69.5266 -3.9105 69.7117 -4.01299C69.5374 -4.109 69.3026 -4.2328 69.0317 -4.36104C69.5299 -4.46641 70.2866 -4.51078 71.1895 -4.48754L72.4653 -4.49263C72.8034 -4.48985 73.0618 -4.51834 73.1872 -4.5722C73.3125 -4.62606 73.2952 -4.70117 73.1388 -4.78201C70.7197 -5.18892 70.6306 -5.23378 68.8551 -4.97204L66.4977 -5.09367L66.5374 -5.09554ZM98.4233 -3.97775L98.2437 -3.99992L98.4233 -3.97775ZM392.203 39.3156L392.162 39.385L392.207 39.3092L392.602 39.358L392.628 39.3138L392.203 39.3156ZM334.82 8.89539C334.261 8.81967 333.697 8.75006 333.131 8.68698C332.983 8.67719 332.844 8.67498 332.727 8.68053C332.609 8.68608 332.516 8.69923 332.456 8.71885C332.411 8.79456 332.727 8.8471 333.015 8.88257C333.377 8.93031 333.747 8.96066 334.087 8.97046C334.427 8.98027 334.725 8.9692 334.948 8.93837L335.273 8.91074L334.82 8.89539ZM47.0865 27.3488C47.4543 27.3615 47.8031 27.3636 48.1242 27.3549C49.5491 27.2937 50.9132 27.2047 52.3739 27.148C54.217 27.0039 56.3349 26.9452 58.6481 26.9741C59.5518 26.9883 60.3153 26.9416 60.8495 26.8395C61.1692 26.7847 61.5819 26.7527 62.0624 26.7453L68.1778 26.579C68.5558 26.5445 68.8826 26.4961 69.1506 26.4349C68.6116 26.3684 68.2523 26.3241 68.0368 26.2975C67.5895 26.29 67.205 26.3103 66.9219 26.3563C66.6178 26.4343 66.1038 26.4651 65.482 26.4427C64.8543 26.4242 64.2421 26.4142 63.6486 26.4129C62.5279 26.4168 61.3995 26.4333 60.275 26.4435C59.8374 26.6604 58.5461 26.562 57.4404 26.5406L56.5861 26.5503C53.7937 26.6628 51.1264 26.8175 48.5971 27.0137C48.1082 27.0469 47.6871 27.0999 47.3466 27.1709C47.2183 27.2264 47.1772 27.2955 47.2265 27.3728L47.0469 27.3507L47.0865 27.3488ZM171.781 48.0881C172.458 48.1029 173.164 48.1333 173.886 48.1787C174.444 48.2251 174.987 48.2533 175.495 48.2621C178.343 48.3108 181.311 48.4231 184.359 48.5975C184.758 48.6239 185.141 48.6369 185.493 48.6359L187.988 48.5916C188.774 48.5667 188.789 48.5415 188.217 48.2067C187.742 48.1418 187.262 48.0825 186.78 48.0294C186.492 47.9939 186.025 47.9363 185.916 47.9905C185.249 48.1385 184.034 48.0426 183.011 48.0112C180.051 47.9304 176.998 47.811 174.009 47.713C173.377 47.6891 172.765 47.677 172.18 47.6768C171.816 47.6718 171.484 47.6813 171.199 47.7048C171.115 47.7072 171.045 47.7142 170.994 47.7253C170.942 47.7365 170.91 47.7515 170.899 47.7694C170.888 47.7873 170.9 47.8077 170.932 47.8292C170.964 47.8507 171.017 47.8728 171.086 47.8941C171.331 47.9686 171.613 48.04 171.924 48.1059L171.781 48.0881ZM193.465 -0.4972L196.381 -0.536887C196.731 -0.541146 197.028 -0.585817 197.402 -0.566712C199.399 -0.506165 201.247 -0.52303 202.87 -0.616591C203.422 -0.654771 204.068 -0.662407 204.773 -0.639073C206.93 -0.569934 208.965 -0.567088 210.823 -0.630621C212.023 -0.643371 213.147 -0.686196 214.177 -0.758461C214.256 -0.775236 214.306 -0.79801 214.322 -0.825232C214.338 -0.852453 214.321 -0.88348 214.271 -0.916197C214.258 -0.936866 214.223 -0.959102 214.167 -0.981369C214.112 -1.00364 214.038 -1.02541 213.951 -1.04519C213.864 -1.06496 213.765 -1.08227 213.662 -1.09592C213.559 -1.10957 213.453 -1.11925 213.353 -1.12427C212.052 -1.22208 210.817 -1.25616 209.748 -1.22373C208.758 -1.18493 207.691 -1.17357 206.566 -1.18984C205.488 -1.19412 204.758 -1.06761 203.427 -1.16414C202.864 -1.19593 202.367 -1.18547 202.02 -1.1345C201.323 -1.05002 200.35 -1.04532 199.274 -1.12124C198.631 -1.15966 198.015 -1.17614 197.452 -1.17004C196.086 -1.14227 194.78 -1.0867 193.514 -1.033C193.115 -1.02058 192.688 -1.01886 192.238 -1.0279L185.899 -1.13304C184.375 -1.16529 182.855 -1.20386 181.36 -1.21906C180.138 -1.25206 179 -1.24172 177.987 -1.18841C176.907 -1.13238 175.729 -1.10963 174.475 -1.12059C172.529 -1.08993 170.593 -1.0782 168.475 -1.08233C167.123 -1.07979 165.74 -1.08799 164.328 -1.11325C163.613 -1.14576 163.007 -1.11928 162.625 -1.03892C162.393 -0.97276 161.847 -1.02666 161.393 -1.04202C158.973 -1.19 156.704 -1.22507 154.743 -1.14477C154.493 -1.13168 154.218 -1.12695 153.925 -1.13064C152.037 -1.1334 150.081 -1.15133 148.268 -1.15153C147.791 -1.14529 147.342 -1.12817 146.926 -1.10039C146.971 -1.05506 147.098 -1.00594 147.28 -0.963197C147.463 -0.920457 147.688 -0.887383 147.908 -0.870842C149.623 -0.74421 151.278 -0.677316 152.804 -0.672963C155.345 -0.689093 158.007 -0.652826 160.762 -0.564547C162.899 -0.475549 164.848 -0.494289 166.464 -0.619371C167.727 -0.7127 169.369 -0.677585 171.11 -0.520051C171.855 -0.444814 172.578 -0.41473 173.18 -0.433909C173.759 -0.459069 174.424 -0.452967 175.136 -0.415968C176.636 -0.34561 178.079 -0.312973 179.436 -0.318697C180.763 -0.344597 182.001 -0.41535 183.363 -0.436815C184.726 -0.458279 186.801 -0.445979 188.481 -0.482446C190.161 -0.518914 191.823 -0.523827 193.465 -0.4972ZM72.6311 -4.18773C72.785 -3.99264 73.3299 -3.87122 73.916 -3.8192C75.9368 -3.58821 77.9346 -3.48992 79.574 -3.54082C80.4596 -3.61181 81.6402 -3.58448 82.8838 -3.4642C84.3319 -3.33917 85.6853 -3.31843 86.7057 -3.40565C86.9556 -3.42089 87.1471 -3.45311 87.2628 -3.49943C87.2854 -3.53729 87.3266 -3.60669 87.3341 -3.61931C87.2269 -3.65131 87.0955 -3.68096 86.9499 -3.70598C86.8042 -3.731 86.6484 -3.7507 86.4944 -3.76358L79.8009 -3.9869L78.6344 -4.03605C76.5039 -4.16479 74.4738 -4.21608 72.6311 -4.18773ZM85.7972 -1.09996C86.8419 -0.7814 86.8456 -0.787722 87.3808 -0.714899C89.9628 -0.412415 92.543 -0.249131 94.8144 -0.244472C95.3192 -0.245396 95.7477 -0.276144 96.0634 -0.334138C96.2259 -0.341999 96.3293 -0.366969 96.3511 -0.40361C96.3729 -0.44025 96.3113 -0.485586 96.1798 -0.529731L95.3491 -0.754154C93.8404 -0.851314 92.3534 -0.928515 90.897 -0.98529C89.2014 -1.05233 87.6987 -1.05492 85.9409 -1.08223L85.7972 -1.09996ZM171.655 46.6775C172.629 47.116 172.633 47.1097 174.262 47.2228C175.398 47.3029 176.499 47.3499 177.534 47.3625C178.799 47.3763 180.096 47.4009 181.356 47.421C181.664 47.435 181.925 47.4234 182.089 47.3885C182.252 47.3536 182.306 47.2978 182.24 47.2321C182.075 47.1607 181.816 47.0917 181.506 47.0362C181.196 46.9807 180.852 46.9421 180.532 46.9265L179.844 46.9161C179.009 46.8942 178.141 46.8616 177.334 46.8569C176.81 46.875 176.203 46.861 175.561 46.8158C174.919 46.7706 174.259 46.6955 173.632 46.5964L171.655 46.6775ZM90.9952 -3.61447C91.2551 -3.53854 91.549 -3.46582 91.8693 -3.39824C93.109 -3.21092 94.4212 -3.10454 95.5485 -3.09993C96.0816 -3.08833 96.569 -3.12976 97.1117 -3.06955C98.0851 -2.9891 99.0284 -2.94625 99.8907 -2.94331C99.8907 -2.94331 100.133 -2.96088 100.212 -2.96463L100.377 -3.24224C99.9688 -3.30655 99.5431 -3.3591 99.1194 -3.39744C97.6978 -3.4713 96.3009 -3.5218 94.9077 -3.5786C93.5145 -3.63541 93.0286 -3.66151 92.1175 -3.68591C91.7111 -3.6725 91.3352 -3.64857 90.9952 -3.61447ZM60.2094 30.8985L62.0698 31.4667C62.6718 31.5161 63.2342 31.5251 63.6714 31.4922C64.1087 31.4594 64.3967 31.3865 64.4919 31.2848C64.6451 31.2372 64.6604 31.1667 64.5347 31.088C64.4089 31.0094 64.1517 30.9287 63.8172 30.8629C63.4953 30.7849 63.1277 30.715 62.7373 30.6575C62.3469 30.6001 61.9421 30.5562 61.5478 30.5287L60.2094 30.8985ZM75.699 28.0694C74.4822 27.973 73.3184 27.9336 72.2965 27.9542C71.6527 28.0106 70.7803 27.9926 69.8582 27.9039C68.1813 27.7271 66.5648 27.6781 65.3499 27.7674C65.3499 27.7674 65.3048 27.8431 65.0988 27.8651C64.8929 27.8871 65.7097 27.9405 65.8893 27.9626C67.2069 28.0169 68.532 28.0585 69.6774 28.078C70.3886 28.0771 71.1408 28.095 71.9211 28.1314C72.9948 28.1874 74.013 28.2056 74.936 28.1851C74.936 28.1851 75.2931 28.1683 75.6953 28.0757L75.699 28.0694ZM205.648 -1.52666C205.066 -1.63367 204.436 -1.72064 203.804 -1.78105C203.172 -1.84145 202.555 -1.87372 201.998 -1.87544C201.572 -1.88102 201.227 -1.85277 201.019 -1.79514C200.81 -1.73751 200.749 -1.65381 200.845 -1.55725C201.276 -1.50404 201.851 -1.43309 202.174 -1.39319C203.295 -1.39709 204.251 -1.44841 205.648 -1.52666ZM314.443 7.49129C313.977 7.40515 313.463 7.33928 312.96 7.30122C312.458 7.26316 311.987 7.25444 311.601 7.27605C311.403 7.28543 311.537 7.38331 311.504 7.4401C311.482 7.45297 311.482 7.46898 311.504 7.48646C311.527 7.50393 311.571 7.52223 311.632 7.53942C311.693 7.55661 311.768 7.57207 311.85 7.58418C311.932 7.59629 312.018 7.6046 312.098 7.60824C312.604 7.64535 313.081 7.6564 313.488 7.64039C313.894 7.62439 314.217 7.58184 314.428 7.51653L314.443 7.49129ZM321.732 8.72278C321.66 8.67194 321.507 8.61897 321.3 8.57355C321.093 8.52813 320.847 8.49331 320.607 8.4755C320.182 8.47311 319.796 8.4872 319.463 8.51726C319.103 8.54044 319.362 8.68762 319.85 8.77494C320.057 8.80999 320.278 8.83733 320.495 8.85478C320.713 8.87224 320.92 8.87932 321.102 8.87549C321.284 8.87165 321.435 8.85698 321.544 8.83266C321.652 8.80835 321.714 8.77504 321.725 8.7354L321.732 8.72278ZM109.919 -3.07379C108.831 -3.25541 107.994 -3.20972 107.073 -3.28272C106.152 -3.35572 105.926 -3.3634 106.049 -3.24659C106.172 -3.12978 106.803 -3.15347 107.199 -3.10469C107.733 -3.03996 108.27 -3.0028 108.75 -2.99734C109.231 -2.99188 109.635 -3.01835 109.919 -3.07379ZM336.542 27.658C335.966 27.6172 335.402 27.5884 334.858 27.572C334.786 27.5889 334.741 27.611 334.726 27.637C334.71 27.663 334.724 27.6924 334.768 27.7234C334.768 27.7234 335.136 27.8164 335.352 27.843C336.146 27.9342 336.185 27.8036 336.542 27.658ZM417.959 44.5801C418.348 44.7027 418.53 44.7861 418.842 44.8449C418.986 44.8654 419.134 44.8802 419.276 44.8884C419.418 44.8965 419.55 44.8978 419.663 44.892C419.8 44.8567 419.832 44.8026 419.753 44.7406C419.753 44.7406 419.356 44.6306 419.204 44.6255C418.773 44.5995 418.355 44.5843 417.959 44.5801ZM91.4069 -4.11223C90.5805 -4.21422 89.79 -4.31178 89.2179 -4.19277C90.5301 -4.06468 90.5302 -4.06467 91.4069 -4.11223ZM104.791 -2.94801C103.957 -3.16613 103.467 -3.18593 103.067 -3.16086C102.982 -3.15455 102.925 -3.14048 102.906 -3.12079C102.887 -3.1011 102.907 -3.07686 102.961 -3.05174C103.016 -3.02661 103.103 -3.00197 103.21 -2.98153C103.316 -2.9611 103.436 -2.94599 103.552 -2.93849C103.987 -2.93221 104.402 -2.9354 104.791 -2.94801ZM147.739 -2.85578C147.758 -2.88733 147.78 -2.92519 147.565 -2.95179C147.508 -2.9653 147.442 -2.97691 147.373 -2.98547C147.303 -2.99403 147.233 -2.99924 147.169 -3.00056C147.169 -3.00056 147.147 -2.9627 147.132 -2.93747L147.739 -2.85578ZM177.563 49.5196L177.083 49.5484L177.298 49.5751L177.867 49.5911L177.563 49.5196ZM346.554 8.23052C346.374 8.20835 346.195 8.18617 346.168 8.23034C346.13 8.23718 346.107 8.24705 346.1 8.25912C346.093 8.2712 346.102 8.28512 346.127 8.29974C346.127 8.29974 346.379 8.33078 346.486 8.34409L346.554 8.23052ZM318.575 8.58375C318.457 8.58122 318.351 8.58418 318.262 8.59245L318.239 8.6303L318.599 8.67465L318.575 8.58375ZM74.7501 17.6038C74.6113 17.5808 74.4642 17.5626 74.319 17.5506L74.1392 17.5284C74.1392 17.5284 74.3323 17.5928 74.4401 17.6061C74.5479 17.6194 74.6348 17.6031 74.7501 17.6038Z" fill="#8F746F"/>
</g>
</svg>
